<?xml version="1.0" encoding="utf-8"?>
<!-- Generator: Adobe Illustrator 24.1.3, SVG Export Plug-In . SVG Version: 6.00 Build 0)  -->
<svg version="1.1" id="Слой_1" xmlns="http://www.w3.org/2000/svg" xmlns:xlink="http://www.w3.org/1999/xlink" x="0px" y="0px"
	 viewBox="0 0 609.5 157.2" style="enable-background:new 0 0 609.5 157.2;" xml:space="preserve">
<style type="text/css">
	.st0{fill:#FFFFFF;}
	.st1{fill:none;stroke:#FFFFFF;stroke-width:4;stroke-miterlimit:10;}
</style>
<path class="st0" d="M262.7,126.9h-38.9l-0.3-1.2l16.2-4.6c1.4-6.3,1.3-6-4.9-7.5c-4.5-1.3-8.8-2.9-13-4.9c-2.2-1-5.1-2.5-3.1-5.5
	c0.6-0.9,4.2-0.5,5.8,0.3c22.4,12.2,49.4,0.5,55.2-24.1c3.8-16.9-4.5-34.2-20-41.8c-0.9-0.5-2.1-0.6-2.7-1.3c-1-1.3-1.9-2.6-2.8-4
	c1.7-0.5,3.7-1.8,5-1.3c9.3,3.5,17,10.2,21.8,18.9c11.7,20.7,4.4,47-16.4,58.7c-4.4,2.5-9.2,4.2-14.2,5c-2.5,0.4-4.3,0.8-4.3,4.1
	c-0.1,3.6,1.8,3.8,4.5,4.3c4.2,0.8,8.2,2.1,12.3,3.3L262.7,126.9z"/>
<path class="st0" d="M287.5,87.1h6.2v34.6h10.1l-0.5,5.4h-15.8L287.5,87.1L287.5,87.1z"/>
<path class="st0" d="M312.5,87.1v40h-6.2v-40H312.5z"/>
<path class="st0" d="M317.9,127.1v-40h7.2c1.6,5.7,6.4,25.4,6.8,27.6h0.1c-0.3-4.9-0.3-10.6-0.3-17.2V87.1h5.7v40h-6.9
	c-1.3-4.8-6.6-26.8-7-28.5h-0.1c0.3,4.9,0.3,10.3,0.3,17.5v11H317.9z"/>
<path class="st0" d="M360.9,127.1h-4.8c-0.2-1-0.3-2-0.3-3c-1.1,2.7-3.4,3.6-6,3.6c-5.9,0-7.8-4.3-7.8-11.1V97.9
	c0-6.5,2.5-11.4,9.5-11.4c8.4,0,9.3,6.2,9.3,10.5v1.3h-6.2v-1.6c0-2.1-0.3-4.6-3.1-4.6c-2.3,0-3.2,1.6-3.2,4.8v20.5
	c0,3.2,0.9,4.9,3.2,4.9c2.7,0,3.3-2.3,3.3-6.4V110h-3.5v-5.3h9.7L360.9,127.1z"/>
<path class="st0" d="M369.8,127.1l-7-40.1h6.7l2.1,16.3c0.7,5.4,1.6,11.1,1.9,15.7h0.1c0.3-4.4,1.3-10.1,1.9-15.5l2-16.4h6.6
	l-6.8,40.1L369.8,127.1L369.8,127.1z"/>
<path class="st0" d="M391.1,116.5l-1.4,10.7h-6.3l6.5-40h8.7l6.7,40h-6.5l-1.6-10.7H391.1z M396.5,110.8c-0.9-6.8-1.8-13.3-2.3-17.8
	H394c-0.2,3.3-1.4,11.9-2.2,17.8H396.5z"/>
<path class="st0" d="M238.5,46.4c1.1-0.9,2.3-1.9,3.4-2.8c0.8-0.6,1.6-1.7,2.4-1.6c4.5,0.4,8.9-2.1,13.5,0.5
	c7.4,4.1,12.8,9.8,15.3,16.3c-1.3,2.6-2,4.1-2.6,5.3l-5.6-7c-2,2.5-3,4.8-4.4,5.1c-1.6,0.4-3.6-1.1-6.6-2.1l7.1,6
	c-0.7,1-1.9,2.6-2.9,4.2c-0.8,1.2-2.3,2.7-2.1,3.7c1.3,5.3-2.9,8-5.1,11.5c-2.5,3.7-5.8,3-7.2-1.2c-1.5-4.2-2.5-8.6-3.1-13
	c-0.5-3.8-2.4-4.2-5.4-3.7s-6,0.5-6.4-2.8c-0.2-2.8,0.4-5.6,1.8-8c2.2-3.8,5.2-7.2,7.9-10.8L238.5,46.4z M236.7,51.4
	c5.4,1.3,10,4.7,16.7,1.6C247.3,52,242.8,47,236.7,51.4L236.7,51.4z"/>
<path class="st0" d="M221.3,89.6c-6-7.4-7.6-15.4-6.5-24.1c2,2.5,4.1,5,6,7.7c0.4,0.7,0.5,1.5,0.5,2.3
	C221.3,80,221.3,84.6,221.3,89.6z"/>
<path class="st0" d="M256,100.1l-15.6,1.5c-0.1-0.7-0.1-1.4-0.2-2l15.6-1.1L256,100.1z"/>
<path class="st0" d="M223.3,53.1c0.8,0.5,2.1,1,2.1,1.5c0,3.2-0.6,6.3-1.9,9.3c-0.5-2-0.8-4.1-1-6.2c0.1-1.6,0.4-3.2,0.8-4.7
	L223.3,53.1z"/>
<path class="st0" d="M237.8,51.4c6.1-4.4,10.5,0.6,16.7,1.6C247.8,56.1,243.2,52.7,237.8,51.4z"/>
<ellipse transform="matrix(0.1602 -0.9871 0.9871 0.1602 134.6894 301.1085)" class="st1" cx="244.3" cy="71.4" rx="31.5" ry="31.5"/>
<path class="st0" d="M215.5,87c0.4,0.4,0.9,0.7,1.4,0.9c0.5,0.1,0.9,0,1.3-0.3c0.4-0.3,0.6-0.7,0.6-1.2l0.1-1.8l-2.8,0.8l1,2.4
	c0.4,0.7,1.4,0.9,2.1,0.5c0.2-0.1,0.4-0.3,0.5-0.5c0.5-0.9,0.5-2,0-2.9c-0.4-0.6-1-0.9-1.7-0.7c-0.6,0.2-1.1,0.8-1.1,1.5
	c0,0.4,0.1,0.7,0.1,1.1c0,0.2,0,0.3,0,0.5c0,0.1,0,0.2,0,0.3c0-0.2,0-0.1,0,0c-0.2,0.8,0.3,1.6,1,1.8c0.8,0.2,1.6-0.2,1.8-1
	c0.1-0.4,0.2-0.9,0.3-1.3l-2.7,0.4c0,0.1,0.2,0.4,0.1,0.1c0.1,0.1,0.1,0.3,0.1,0.4s0,0.1,0,0.2c0-0.2,0-0.2,0-0.1s0,0.3,0,0.5
	c0,0.7,0.5,1.3,1.1,1.5c0.7,0.1,1.3-0.1,1.7-0.7c0.3-0.5,0.5-1,0.5-1.6h-3c0,1.1,0.2,2.3,0.5,3.3c0.2,0.6,0.8,1.1,1.5,1.1
	s1.3-0.5,1.4-1.1c0.2-0.9,0.1-1.8-0.2-2.7c-0.1-0.8-0.9-1.4-1.7-1.3s-1.4,0.9-1.3,1.7c-0.1,1.6,0.4,3.2,1.5,4.4
	c0.6,0.6,1.5,0.6,2.1,0s0.6-1.5,0-2.1c-0.1-0.1-0.1-0.1,0,0c0-0.1-0.1-0.1-0.1-0.2c-0.1-0.1-0.1-0.2-0.2-0.3
	c-0.1-0.1-0.1-0.2-0.2-0.3c0.1,0.4,0-0.1,0-0.1s-0.1-0.3-0.1-0.4v-0.1c0-0.2,0-0.1,0,0c-0.1-0.3-0.1-0.6,0-0.8l-2.9,0.4l0.1,0.4
	c0,0.1,0,0.2,0,0.3c0-0.2,0-0.2,0-0.1s0,0.3,0,0.4s-0.1,0.5,0,0.2h2.9c-0.1-0.5-0.2-0.9-0.3-1.4c0-0.1-0.1-0.4,0-0.1v-0.3
	c0-0.2,0-0.5,0-0.7c0-0.8-0.7-1.5-1.5-1.5s-1.5,0.7-1.5,1.5c0,0.2,0,0,0-0.1s0-0.1,0,0s-0.1,0.1-0.1,0.1l2.8,0.8
	c0-0.9-0.2-1.8-0.6-2.6c-0.4-0.7-1.4-0.9-2.1-0.5c-0.3,0.2-0.5,0.5-0.6,0.8c-0.1,0.4-0.2,0.9-0.3,1.3l2.9,0.8
	c0.2-0.9,0.2-1.8,0.1-2.7l-2.8,0.8c-0.1-0.2-0.1-0.2,0,0c0-0.2,0-0.2,0,0s0,0.1,0-0.1c0,0.2,0,0.1,0,0h2.6l-1-2.3
	c-0.3-0.6-1-0.9-1.7-0.7c-0.6,0.2-1.1,0.8-1.1,1.5l-0.1,1.8l1.9-1.5c0.4,0.2,0,0,0,0l0.1,0.1c-0.1,0-0.1-0.1-0.2-0.2
	c-0.6-0.6-1.5-0.6-2.1,0S215,86.5,215.5,87L215.5,87z"/>
<path class="st0" d="M241.3,99.6c-0.7-0.1-1.3-0.1-2-0.1c-0.8-0.1-1.6,0.5-1.7,1.3s0.5,1.6,1.3,1.7c1,0.3,2,0.4,3,0.2
	c0.7-0.2,1.2-0.9,1.1-1.6c-0.1-0.7-0.7-1.3-1.5-1.3c-3.4-0.3-6.8-0.5-10-1.6c-0.8-0.2-1.6,0.2-1.8,1s0.2,1.6,1,1.9
	c3.4,1.3,7.2,1.4,10.8,1.7l-0.4-2.9c0.1,0-0.3,0-0.3,0c-0.1,0-0.3,0-0.4,0c-0.2,0-0.5-0.1-0.7-0.2l-0.4,2.9c0.7,0,1.3,0,2,0.1
	c0.8,0,1.5-0.7,1.5-1.5C242.7,100.3,242,99.7,241.3,99.6L241.3,99.6z"/>
<path class="st0" d="M246.9,41.1c-2.4,0.1-4.7,0.9-6.6,2.5c-1.8,1.4-3.5,2.9-5,4.6c-3,3.4-5,7.5-5.7,12c-0.2,0.8,0.2,1.6,1,1.8
	s1.6-0.3,1.8-1c0.6-3.9,2.3-7.5,4.8-10.4c1.2-1.5,2.6-2.9,4.2-4.1c1.6-1.3,3.4-2.4,5.4-2.4S248.8,41.1,246.9,41.1z"/>
<path class="st0" d="M270.3,63.4C270.3,63.4,270.3,63.4,270.3,63.4c0,0.2,0,0.3-0.1,0.3c-0.1,0.1-0.1,0.3,0,0.4s0.3,0.2,0.4,0.2
	c0.2,0,0.4-0.1,0.5-0.3s0.2-0.4,0.3-0.6l0.3-0.7l0.7-1.5c0-0.1,0-0.2-0.1-0.2s-0.1,0-0.2,0l-0.6,0.8c-0.1,0.2,0.1,0.3,0.3,0.2
	l0.6-0.8l-0.3-0.1l-1.3,2.6c-0.1,0.1-0.2,0.4-0.3,0.4s-0.2-0.1-0.2-0.2s0.2-0.5-0.1-0.7S270.1,63.3,270.3,63.4L270.3,63.4z"/>
<path class="st0" d="M270.6,63.9c-0.5-0.8-0.9-1.6-1.3-2.5c-0.1-0.2-0.4-0.1-0.3,0.1c0.4,0.9,0.8,1.8,1.3,2.6
	C270.5,64.2,270.7,64,270.6,63.9L270.6,63.9z"/>
<path class="st0" d="M270.4,63.9c-0.3-0.2-0.4-0.4-0.5-0.8c-0.1-0.4-0.2-0.7-0.4-1c-0.1-0.1-0.3-0.1-0.3,0.1
	c0.2,0.5,0.4,1.1,0.6,1.6c0.1,0.2,0.2,0.5,0.5,0.5s0.5-0.1,0.7-0.2s0-0.4-0.2-0.3s-0.4,0.3-0.5,0.2c-0.1,0-0.1-0.1-0.2-0.2
	c-0.1-0.1-0.1-0.2-0.2-0.3c-0.2-0.4-0.4-0.9-0.5-1.4l-0.3,0.1c0.4,0.6,0.4,1.5,1.1,1.9c0.1,0,0.2,0,0.2-0.1S270.5,63.9,270.4,63.9
	L270.4,63.9z"/>
<path class="st0" d="M270.6,62.8c-0.2,0.3-0.3,0.7-0.4,1.1c0,0.1,0.1,0.1,0.2,0.1h0.1l0.5-0.6l-0.2-0.2l-0.3,0.7
	c0,0.1,0,0.2,0.1,0.2s0.1,0,0.2,0c0.2-0.1,0.3-0.3,0.4-0.5l-0.3-0.1c0,0.1-0.1,0.3-0.2,0.4L271,64c0.3-0.6,0.5-1.3,0.5-2.1
	c0-0.1-0.2-0.2-0.3-0.1c-0.2,0.3-0.3,0.7-0.4,1c0,0.1,0,0.2,0.1,0.2h0.1c0.3-0.3,0.6-0.6,0.9-1c0.3-0.3,0.5-0.7,0.5-1.1
	c0-0.2-0.3-0.2-0.3,0c-0.1,0.4-0.2,0.8-0.4,1.1l0.3,0.1c0-0.4,0.1-0.7,0.3-1c0.1-0.2-0.2-0.3-0.3-0.1l-0.6,0.8l0.3,0.1
	c0.1-0.2,0.3-0.4,0.4-0.6h-0.3l0,0v0.1l-0.1,0.2l-0.2,0.3l-0.4,0.7c-0.1,0.1,0.1,0.3,0.2,0.2c0.2-0.2,0.3-0.4,0.4-0.6
	c0.1-0.2-0.2-0.3-0.3-0.1l-0.3,0.7l0.3,0.1c0-0.2,0.1-0.3,0.2-0.5l-0.3-0.1c-0.1,0.3-0.2,0.5-0.4,0.8l0.3,0.1l0.2-0.4l-0.3-0.1
	c0,0.2-0.1,0.4-0.2,0.6c0,0.1,0,0.2,0,0.2c0.1,0,0.2,0,0.2-0.1c0.1-0.2,0.3-0.4,0.4-0.7c0-0.1,0-0.2-0.1-0.2s-0.2,0-0.2,0.1
	c-0.2,0.3-0.4,0.7-0.5,1c-0.1,0.1,0.1,0.3,0.2,0.2c0.3-0.4,0.6-0.8,0.7-1.3c0.1-0.2-0.2-0.3-0.3-0.1c-0.1,0.4-0.4,0.8-0.6,1.2
	l0.2,0.2c0.2-0.3,0.3-0.7,0.5-1l-0.3-0.1c-0.1,0.2-0.2,0.5-0.4,0.7l0.3,0.2c0.1-0.2,0.2-0.4,0.2-0.7c0-0.2-0.2-0.3-0.3-0.1L271,63
	c-0.1,0.2,0.2,0.3,0.3,0.1c0.2-0.3,0.3-0.5,0.4-0.8c0-0.1-0.1-0.2-0.1-0.2c-0.1,0-0.1,0-0.1,0.1c-0.1,0.2-0.2,0.4-0.2,0.5
	c0,0.2,0.2,0.3,0.3,0.1l0.3-0.7l-0.3-0.1c-0.1,0.2-0.2,0.4-0.3,0.5l0.2,0.2l0.5-0.9c0.1-0.1,0.2-0.3,0.2-0.4s0.1-0.2,0-0.3
	c0-0.1-0.1-0.1-0.2-0.1c0,0,0,0-0.1,0.1c-0.1,0.2-0.3,0.4-0.4,0.6s0.2,0.3,0.3,0.1l0.6-0.8l-0.3-0.1c-0.2,0.3-0.3,0.7-0.4,1.1
	c0,0.2,0.2,0.2,0.3,0.1c0.2-0.4,0.4-0.8,0.5-1.2h-0.3c0,0.4-0.2,0.7-0.5,1c-0.2,0.3-0.5,0.6-0.8,0.9l0.3,0.1
	c0.1-0.3,0.2-0.6,0.3-0.9l-0.3-0.1c0,0.7-0.2,1.4-0.5,2c0,0.1,0.2,0.3,0.3,0.1c0.1-0.2,0.2-0.3,0.3-0.5c0-0.1-0.2-0.3-0.3-0.1
	c-0.1,0.2-0.2,0.3-0.3,0.4l0.2,0.2l0.3-0.6c0.1-0.1-0.1-0.3-0.2-0.2l-0.5,0.6l0.3,0.1c0-0.4,0.1-0.7,0.3-1c0-0.1,0-0.2,0-0.2
	C270.8,62.8,270.7,62.8,270.6,62.8L270.6,62.8z"/>
<path class="st0" d="M255.3,60.1c-0.3-0.2-0.6-0.2-0.9,0c-0.1,0.1-0.2,0.2-0.3,0.4c0,0.1,0,0.2,0,0.2c0,0.1,0,0.2,0,0.2h0.3
	c-0.1-0.5-0.1-1,0-1.5c0-0.1-0.2-0.2-0.3-0.1c-0.1,0.2-0.1,0.4,0,0.6l0.2-0.2l-0.4-0.1c-0.1,0-0.2-0.1-0.2,0s0,0.1,0,0.2
	c0,0.1,0.2,0.2,0.3,0.2l0.4,0.2c0.1,0,0.2,0,0.2-0.1s0-0.2-0.1-0.2l-0.3-0.2c-0.1,0-0.2,0-0.2,0.1s0,0.2,0.1,0.2l0.3,0.2l0.2-0.3
	l-0.3-0.1l-0.1-0.1H254l0,0v0.1l0,0h-0.1l0.5,0.2c0.1,0,0.2-0.1,0.2-0.2c0-0.1,0-0.2,0-0.3l-0.3-0.1c-0.1,0.5-0.1,1,0,1.5
	c0,0.1,0,0.1,0.1,0.1s0.1,0,0.2-0.1c0-0.1,0-0.3,0-0.4c0-0.1,0.1-0.2,0.1-0.3c0.2-0.1,0.4-0.1,0.6,0c0.1,0,0.2,0,0.2,0l0,0
	C255.5,60.2,255.5,60.1,255.3,60.1L255.3,60.1z"/>
<path class="st0" d="M254.7,59.8c-0.3,0.2-0.5,0.5-0.4,0.9c0,0.2,0.1,0.4,0.1,0.6c0,0.2,0.1,0.4,0.3,0.5c0.1,0.1,0.3-0.1,0.2-0.2
	c-0.1-0.1-0.2-0.2-0.2-0.4c-0.1-0.2-0.1-0.3-0.1-0.5c0-0.3,0.1-0.5,0.3-0.7C255.1,59.9,254.9,59.7,254.7,59.8L254.7,59.8z"/>
<path class="st0" d="M259.3,64.9c0.3,0.2,0.6,0.4,0.9,0.6c0.3,0.1,0.8,0.3,0.6,0.7c-0.3,0.6-1.1,0.6-1.3,1.3c0,0.1,0,0.2,0.1,0.2
	s0.1,0,0.2,0c0.4-0.3,0.7-0.7,1.1-1.1c0.1-0.1,0.2-0.2,0.2-0.4s-0.3-0.4-0.4-0.6l-0.2,0.2c0.1,0.1,0.2,0.2,0.3,0.4
	c0,0.1,0.1,0.1,0.2,0.1c0,0,0.1,0,0.1-0.1c0.1-0.2,0.1-0.5,0-0.7c0-0.1-0.1-0.1-0.2-0.1l-0.1,0.1v0.6c0,0.1,0.1,0.1,0.2,0.1h0.1
	c0.3-0.3,0.2-0.7-0.1-1c-0.2-0.1-0.4-0.3-0.6-0.4l-0.8-0.4l-3.4-1.6c-0.2-0.1-0.3,0.2-0.2,0.3l2.7,1.3L260,65
	c0.3,0.1,1.1,0.5,0.7,0.9L261,66v-0.6l-0.3,0.1c0.1,0.1,0.1,0.3,0,0.4h0.3c-0.1-0.2-0.2-0.4-0.4-0.5c-0.1-0.1-0.3,0.1-0.2,0.2
	l0.2,0.2l0.2,0.2c0,0-0.3,0.4-0.4,0.5c-0.2,0.3-0.5,0.5-0.8,0.8l0.3,0.1c0.1-0.4,0.5-0.5,0.8-0.8c0.3-0.2,0.5-0.5,0.5-0.8
	s-0.3-0.6-0.5-0.6c-0.4-0.2-0.8-0.4-1.1-0.7C259.4,64.5,259.1,64.7,259.3,64.9L259.3,64.9z"/>
<path class="st0" d="M256.4,71.7c-0.3,0.3-0.5,0.7-0.6,1.2c-0.2,0.4-0.2,0.9-0.1,1.4c0,0.1,0.1,0.1,0.2,0.1c0.1,0,0.1-0.1,0.1-0.1
	c0-0.3,0-0.6,0-0.9s0.1-0.5,0.3-0.8c0.3-0.5,0.7-1,1-1.4c0.1-0.1-0.1-0.3-0.3-0.1l-0.6,0.8c-0.2,0.2-0.3,0.5-0.5,0.7
	c-0.2,0.5-0.3,1.1-0.3,1.7h0.3c-0.1-0.4,0-0.8,0.1-1.2c0.1-0.4,0.3-0.7,0.5-1c0.1-0.1-0.1-0.4-0.2-0.2L256.4,71.7z"/>
<path class="st0" d="M244.3,46.3c0.1,0,0.1-0.1,0.1-0.2c0-0.1-0.1-0.1-0.1-0.1c-0.1,0-0.1,0.1-0.1,0.2
	C244.1,46.2,244.2,46.3,244.3,46.3z"/>
<path class="st0" d="M240.6,43.8c0.1,0,0.1-0.1,0.1-0.2c0-0.1-0.1-0.1-0.1-0.1c-0.1,0-0.1,0.1-0.1,0.2
	C240.4,43.8,240.5,43.8,240.6,43.8z"/>
<path class="st0" d="M244.3,44.1c0.1,0,0.1-0.1,0.1-0.2c0-0.1-0.1-0.1-0.1-0.1c-0.1,0-0.1,0.1-0.1,0.2
	C244.1,44.1,244.2,44.1,244.3,44.1z"/>
<path class="st0" d="M218.6,82.9c-0.7,4.7,1.4,9.4,4,13.3c0.4,0.7,1.3,0.9,2.1,0.5c0.7-0.4,0.9-1.3,0.5-2.1
	c-1.2-1.6-2.1-3.4-2.8-5.3c-0.8-1.8-1.1-3.7-0.9-5.6c0.2-0.8-0.3-1.6-1-1.9C219.6,81.6,218.8,82.1,218.6,82.9L218.6,82.9z"/>
<path class="st0" d="M214.6,58.1c-1.3,3.3-0.3,6.8,1.1,9.8c1.5,3.3,3.3,6.4,4.2,10c0.7,3.5,1.1,7,1,10.6c0.1,3.2,0.7,6.5,3,8.9
	c1.3,1.4,3.5-0.7,2.1-2.1c-2.1-2.2-2.1-5.5-2.1-8.4c0-3.3-0.3-6.5-1.1-9.7c-0.9-3.1-2.1-6-3.6-8.8c-1.5-2.9-3-6.1-1.7-9.4
	C218.2,57.2,215.3,56.4,214.6,58.1L214.6,58.1z"/>
<path class="st0" d="M259.7,67.4l-0.4,0.5c-0.1,0.1,0.1,0.4,0.2,0.2c0.5-0.5,1.3-0.9,1.6-1.6c0.2-0.3,0.2-0.7,0-1s-0.6-0.4-0.9-0.4
	c-0.2,0-0.3,0.3-0.1,0.3s0.7,0.1,0.8,0.4s0,0.6-0.2,0.9c-0.4,0.5-0.9,0.9-1.4,1.3l0.2,0.2l0.4-0.5C260,67.4,259.8,67.2,259.7,67.4
	L259.7,67.4z"/>
</svg>
